# xmcd
#
# Track frame offsets: 
#        150
#        19283
#        38201
#        51083
#        76253
#        96852
#        114913
#        132678
#        149079
#        167273
#        186964
#        207976
#        223782
#        250798
#        258618
#        284512
#
# Disc length: 3971 seconds
#
# Revision: 0
# Processed by: cddbd v1.5.2PL0 Copyright (c) Steve Scherf et al.
# Submitted via: ExactAudioCopy v0.99pb4
#
DISCID=f40f8110
DTITLE=Eric Hokkanen  - Gypsy Twang
DYEAR=2003
DGENRE=Folk/Rock
TTITLE0=Moment to Moment
TTITLE1=Flash Flood
TTITLE2=Sinple and sweet
TTITLE3=Viva la manouche
TTITLE4=Empty pockets
TTITLE5=Ruby's the one
TTITLE6=Quantum surfin'
TTITLE7=Rynas' Moustache
TTITLE8=Walkie Talkie Zombies
TTITLE9=Graveyard Shift
TTITLE10=Danger Zone
TTITLE11=Love Letter
TTITLE12=Sufers's Boler
TTITLE13=Thats's sharp lester
TTITLE14=Code Red
TTITLE15=Landlady Lady
EXTD=
EXTT0=
EXTT1=
EXTT2=
EXTT3=
EXTT4=
EXTT5=
EXTT6=
EXTT7=
EXTT8=
EXTT9=
EXTT10=
EXTT11=
EXTT12=
EXTT13=
EXTT14=
EXTT15=
PLAYORDER=
